<svg xmlns="http://www.w3.org/2000/svg" viewBox="0 0 48 48" role="img" aria-labelledby="title">
  <title id="title">YouTube</title>
  <rect width="48" height="48" rx="8" fill="#ffffff"/>
  <path fill="#ff0033" d="M42.99 15.48a5.02 5.02 0 0 0-3.54-3.55C36.32 11.09 23.76 11.09 23.76 11.09s-12.55 0-15.68.84a5.02 5.02 0 0 0-3.54 3.55c-.84 3.13-.84 9.66-.84 9.66s0 6.53.84 9.66a5.02 5.02 0 0 0 3.54 3.55c3.13.84 15.68.84 15.68.84s12.56 0 15.69-.84a5.02 5.02 0 0 0 3.54-3.55c.84-3.13.84-9.66.84-9.66s0-6.53-.84-9.66Z"/>
  <path fill="#ffffff" d="M20.12 31.18V19.1l10.42 6.04-10.42 6.04Z"/>
</svg>
