<svg xmlns="http://www.w3.org/2000/svg" viewBox="0 0 48 48" role="img" aria-labelledby="title">
  <title id="title">ニコニコ</title>
  <rect width="48" height="48" rx="8" fill="#ffffff"/>
  <path fill="#252525" d="M31.37 8.63 24 15.12l-7.37-6.49a1.9 1.9 0 0 0-2.5 2.86l5.33 4.69H13.1A6.1 6.1 0 0 0 7 22.28v9.55a6.1 6.1 0 0 0 6.1 6.1h21.8a6.1 6.1 0 0 0 6.1-6.1v-9.55a6.1 6.1 0 0 0-6.1-6.1h-6.36l5.33-4.69a1.9 1.9 0 1 0-2.5-2.86ZM13.1 20.18h21.8a2.1 2.1 0 0 1 2.1 2.1v9.55a2.1 2.1 0 0 1-2.1 2.1H13.1a2.1 2.1 0 0 1-2.1-2.1v-9.55a2.1 2.1 0 0 1 2.1-2.1Z"/>
  <path fill="#252525" d="M17.05 26.32a2.25 2.25 0 1 0 0-4.5 2.25 2.25 0 0 0 0 4.5Zm13.9 0a2.25 2.25 0 1 0 0-4.5 2.25 2.25 0 0 0 0 4.5ZM17.2 29.25h13.6v3H17.2v-3Z"/>
</svg>
