<svg xmlns="http://www.w3.org/2000/svg" viewBox="0 0 48 48" role="img" aria-labelledby="title">
  <title id="title">bilibili</title>
  <rect width="48" height="48" rx="8" fill="#00aeec"/>
  <path fill="#ffffff" d="M16.12 9.67a1.8 1.8 0 0 1 2.53.23l4.02 4.83h2.66l4.02-4.83a1.8 1.8 0 1 1 2.76 2.3l-2.1 2.53h3.17a6.32 6.32 0 0 1 6.32 6.32v10.44a6.32 6.32 0 0 1-6.32 6.32H14.82a6.32 6.32 0 0 1-6.32-6.32V21.05a6.32 6.32 0 0 1 6.32-6.32h3.17l-2.1-2.53a1.8 1.8 0 0 1 .23-2.53Zm-1.3 8.77a2.62 2.62 0 0 0-2.62 2.61v10.44a2.62 2.62 0 0 0 2.62 2.62h18.36a2.62 2.62 0 0 0 2.62-2.62V21.05a2.62 2.62 0 0 0-2.62-2.61H14.82Z"/>
  <path fill="#ffffff" d="M18.1 24.03a2.15 2.15 0 1 1 4.3 0 2.15 2.15 0 0 1-4.3 0Zm7.5 0a2.15 2.15 0 1 1 4.3 0 2.15 2.15 0 0 1-4.3 0Zm-8.02 6.05h12.84v2.7H17.58v-2.7Z"/>
</svg>
