<svg xmlns="http://www.w3.org/2000/svg" viewBox="0 0 48 48" role="img" aria-labelledby="title">
  <title id="title">GitHub</title>
  <rect width="48" height="48" rx="8" fill="#24292f"/>
  <path fill="#ffffff" d="M24 9.2c-8.3 0-15.03 6.72-15.03 15.03 0 6.65 4.31 12.29 10.29 14.28.75.14 1.03-.33 1.03-.72 0-.36-.01-1.31-.02-2.57-4.19.91-5.07-2.02-5.07-2.02-.69-1.74-1.68-2.2-1.68-2.2-1.37-.94.1-.92.1-.92 1.52.11 2.32 1.56 2.32 1.56 1.35 2.31 3.54 1.64 4.4 1.25.14-.98.53-1.64.96-2.02-3.34-.38-6.86-1.67-6.86-7.44 0-1.64.59-2.99 1.55-4.04-.16-.38-.67-1.91.15-3.98 0 0 1.26-.4 4.13 1.54a14.36 14.36 0 0 1 7.51 0c2.87-1.94 4.13-1.54 4.13-1.54.82 2.07.31 3.6.15 3.98.96 1.05 1.55 2.4 1.55 4.04 0 5.78-3.52 7.05-6.87 7.43.54.47 1.02 1.38 1.02 2.78 0 2.01-.02 3.63-.02 4.12 0 .4.27.87 1.04.72a15.04 15.04 0 0 0 10.27-14.27C39.03 15.92 32.3 9.2 24 9.2Z"/>
</svg>
