<svg xmlns="http://www.w3.org/2000/svg" viewBox="0 0 1200 1600" preserveAspectRatio="xMidYMid slice">
  <defs>
    <linearGradient id="sky" x1="0" x2="1" y1="0" y2="1">
      <stop offset="0" stop-color="#1d8c82"/>
      <stop offset="0.5" stop-color="#d7582b"/>
      <stop offset="1" stop-color="#e6b653"/>
    </linearGradient>
    <filter id="noise">
      <feTurbulence type="fractalNoise" baseFrequency=".8" numOctaves="4" seed="22"/>
      <feColorMatrix type="saturate" values="0"/>
      <feComponentTransfer>
        <feFuncA type="table" tableValues="0 .22"/>
      </feComponentTransfer>
    </filter>
  </defs>
  <rect width="1200" height="1600" fill="url(#sky)"/>
  <rect width="1200" height="1600" filter="url(#noise)" opacity=".46"/>
  <g fill="none" stroke="#fffaf2" stroke-linecap="round" opacity=".38">
    <path d="M140 350c140-120 290-148 450-86 153 60 312 42 476-52" stroke-width="34"/>
    <path d="M82 1050c230-78 416-70 558 24 130 86 280 90 450 14" stroke-width="28"/>
    <path d="M250 740c102-58 206-68 312-30 96 34 185 22 267-36" stroke-width="18"/>
  </g>
  <g fill="#fffaf2" opacity=".7">
    <circle cx="220" cy="230" r="18"/>
    <circle cx="960" cy="560" r="28"/>
    <circle cx="315" cy="1220" r="22"/>
    <circle cx="1020" cy="1260" r="15"/>
  </g>
</svg>
