<svg xmlns="http://www.w3.org/2000/svg" viewBox="0 0 860 145" role="img" aria-labelledby="title desc">
  <title id="title">Soupon2gouHUB wordmark</title>
  <desc id="desc">Temporary horizontal logo for Soupon2gouHUB.</desc>
  <defs>
    <linearGradient id="markGradient" x1="0" x2="1" y1="0" y2="1">
      <stop offset="0" stop-color="#e6b653"/>
      <stop offset="0.48" stop-color="#d7582b"/>
      <stop offset="1" stop-color="#1d8c82"/>
    </linearGradient>
    <filter id="softShadow" x="-8%" y="-18%" width="116%" height="136%">
      <feDropShadow dx="0" dy="10" stdDeviation="10" flood-color="#000000" flood-opacity=".2"/>
    </filter>
  </defs>
  <g filter="url(#softShadow)">
    <rect x="0" y="13" width="118" height="118" rx="27" fill="#251f1b"/>
    <path d="M24 51c11-18 28-28 51-28 21 0 37 9 48 25" fill="none" stroke="#e6b653" stroke-width="11" stroke-linecap="round"/>
    <path d="M97 96c-11 18-28 28-51 28-21 0-37-9-48-25" fill="none" stroke="#1d8c82" stroke-width="11" stroke-linecap="round"/>
    <path d="M27 73h31c11 0 18 6 18 15 0 10-9 16-24 16H26" fill="none" stroke="#fffaf2" stroke-width="9" stroke-linecap="round" stroke-linejoin="round"/>
    <path d="M101 45H64c-11 0-17 5-17 14s8 14 20 14h13" fill="none" stroke="#fffaf2" stroke-width="9" stroke-linecap="round" stroke-linejoin="round"/>
    <circle cx="101" cy="104" r="8" fill="#d7582b"/>
  </g>
  <g>
    <text x="128" y="99" fill="#fffaf2" font-family="Arial, Helvetica, sans-serif" font-size="92" font-weight="900" letter-spacing="0">Soupon2gou</text>
    <text x="703" y="99" fill="url(#markGradient)" font-family="Arial, Helvetica, sans-serif" font-size="92" font-weight="900" letter-spacing="0">HUB</text>
  </g>
  <rect x="132" y="114" width="176" height="8" rx="4" fill="#e6b653"/>
  <rect x="320" y="114" width="176" height="8" rx="4" fill="#d7582b"/>
  <rect x="508" y="114" width="176" height="8" rx="4" fill="#1d8c82"/>
</svg>
